<svg width="400" height="400" viewBox="0 0 400 400" fill="none" xmlns="http://www.w3.org/2000/svg">
  <defs>
    <linearGradient id="portalGrad" x1="0%" y1="0%" x2="100%" y2="100%">
      <stop offset="0%" stop-color="#7A5FFF"/>
      <stop offset="100%" stop-color="#0066FF"/>
    </linearGradient>
    <radialGradient id="aiGlow">
      <stop offset="0%" stop-color="#0066FF" stop-opacity="0.4"/>
      <stop offset="100%" stop-color="#7A5FFF" stop-opacity="0"/>
    </radialGradient>
  </defs>
  
  <!-- Background -->
  <rect width="400" height="400" fill="#f0f2f5"/>
  
  <!-- Central AI brain/network -->
  <g transform="translate(200, 200)">
    <!-- Neural network nodes -->
    <circle cx="-80" cy="-60" r="8" fill="#0066FF"/>
    <circle cx="-80" cy="0" r="8" fill="#7A5FFF"/>
    <circle cx="-80" cy="60" r="8" fill="#0066FF"/>
    
    <circle cx="0" cy="-80" r="10" fill="#7A5FFF"/>
    <circle cx="0" cy="-30" r="10" fill="#0066FF"/>
    <circle cx="0" cy="30" r="10" fill="#7A5FFF"/>
    <circle cx="0" cy="80" r="10" fill="#0066FF"/>
    
    <circle cx="80" cy="-40" r="8" fill="#0066FF"/>
    <circle cx="80" cy="0" r="8" fill="#7A5FFF"/>
    <circle cx="80" cy="40" r="8" fill="#0066FF"/>
    
    <!-- Connections -->
    <g opacity="0.4" stroke="url(#portalGrad)" stroke-width="2">
      <line x1="-80" y1="-60" x2="0" y2="-80"/>
      <line x1="-80" y1="-60" x2="0" y2="-30"/>
      <line x1="-80" y1="0" x2="0" y2="-30"/>
      <line x1="-80" y1="0" x2="0" y2="30"/>
      <line x1="-80" y1="60" x2="0" y2="30"/>
      <line x1="-80" y1="60" x2="0" y2="80"/>
      
      <line x1="0" y1="-80" x2="80" y2="-40"/>
      <line x1="0" y1="-30" x2="80" y2="-40"/>
      <line x1="0" y1="-30" x2="80" y2="0"/>
      <line x1="0" y1="30" x2="80" y2="0"/>
      <line x1="0" y1="30" x2="80" y2="40"/>
      <line x1="0" y1="80" x2="80" y2="40"/>
    </g>
    
    <!-- Pulsing glow -->
    <circle cx="0" cy="0" r="120" fill="url(#aiGlow)">
      <animate attributeName="r" values="120;140;120" dur="4s" repeatCount="indefinite"/>
    </circle>
    
    <!-- Data flow particles -->
    <g fill="#0066FF">
      <circle cx="-40" cy="-45" r="3">
        <animateMotion path="M 0 0 L 40 -35" dur="2s" repeatCount="indefinite"/>
        <animate attributeName="opacity" values="0;1;0" dur="2s" repeatCount="indefinite"/>
      </circle>
      <circle cx="-40" cy="15" r="3">
        <animateMotion path="M 0 0 L 40 15" dur="2.5s" repeatCount="indefinite"/>
        <animate attributeName="opacity" values="0;1;0" dur="2.5s" repeatCount="indefinite"/>
      </circle>
    </g>
  </g>
  
  <!-- Chat/Support bubbles -->
  <g transform="translate(80, 320)">
    <rect x="0" y="0" width="80" height="40" rx="20" fill="#0066FF" opacity="0.8"/>
    <circle cx="25" cy="20" r="3" fill="#fff"/>
    <circle cx="40" cy="20" r="3" fill="#fff"/>
    <circle cx="55" cy="20" r="3" fill="#fff"/>
  </g>
  
  <g transform="translate(240, 340)">
    <rect x="0" y="0" width="90" height="35" rx="18" fill="#7A5FFF" opacity="0.7"/>
    <line x1="10" y1="12" x2="70" y2="12" stroke="#fff" stroke-width="2" opacity="0.6"/>
    <line x1="10" y1="22" x2="50" y2="22" stroke="#fff" stroke-width="2" opacity="0.6"/>
  </g>
  
  <!-- Decorative sparkles -->
  <g fill="#7A5FFF" opacity="0.6">
    <path d="M 60 80 L 62 84 L 60 88 L 58 84 Z">
      <animateTransform attributeName="transform" type="rotate" from="0 60 80" to="360 60 80" dur="10s" repeatCount="indefinite"/>
    </path>
    <path d="M 340 120 L 343 124 L 340 128 L 337 124 Z">
      <animateTransform attributeName="transform" type="rotate" from="0 340 120" to="360 340 120" dur="12s" repeatCount="indefinite"/>
    </path>
  </g>
</svg>
