<?xml version="1.0" encoding="utf-8"?>
<!-- Generator: Adobe Illustrator 27.9.0, SVG Export Plug-In . SVG Version: 6.00 Build 0)  -->
<svg version="1.1" id="Layer_1" xmlns="http://www.w3.org/2000/svg" xmlns:xlink="http://www.w3.org/1999/xlink" x="0px" y="0px"
	 viewBox="0 0 1080 1080" style="enable-background:new 0 0 1080 1080;" xml:space="preserve">
<style type="text/css">
	.st0{fill:#0068FF;}
	.st1{fill:#1C1C1C;}
</style>
<g>
	<g>
		<g>
			<g>
				<path class="st0" d="M491.55,465.65v0.65c-1.4,0.27-2.75,0.61-4.05,1.02c-3.44,1.1-6.56,2.62-9.26,4.54
					c-2.69,1.89-5.04,4.1-6.98,6.58c-1.86,2.39-3.41,4.94-4.59,7.57c-1.14,2.57-1.99,5.22-2.54,7.87c-0.54,2.61-0.81,5.14-0.81,7.5
					v0.17h-52.6v88.81H374.8v-88.81h-43.42v-35.91H491.55z"/>
			</g>
			<g>
				<path class="st0" d="M710.61,550.33c0,4.7-0.62,9.06-1.85,12.93c-1.22,3.85-2.87,7.31-4.92,10.33c-2.1,3.07-4.6,5.74-7.45,7.92
					c-2.65,2.02-5.44,3.72-8.31,5.02c-2.85,1.31-5.81,2.29-8.77,2.91c-2.92,0.61-5.77,0.92-8.45,0.92H499.06
					c-2.35,0-4.87-0.26-7.5-0.8c-2.65-0.55-5.3-1.4-7.86-2.55c-2.62-1.16-5.16-2.67-7.52-4.5c-2.51-1.92-4.74-4.27-6.65-6.98
					c-1.91-2.71-3.44-5.85-4.54-9.32c-1.11-3.49-1.67-7.37-1.67-11.58v-53.08h28.23V466.3c2.36-0.42,4.87-0.65,7.51-0.65h79.09
					v35.91h-78.9v52.9h171.62c1.45,0,2.42-0.26,2.91-0.77c0.22-0.25,0.92-0.99,0.92-3.36c0-0.85-0.11-1.59-0.34-2.2
					c-0.18-0.49-0.4-0.87-0.7-1.19c-0.14-0.15-0.39-0.37-0.9-0.59c-0.5-0.2-1.14-0.31-1.9-0.31h-45.23c-3.97,0-8.25-0.69-12.68-2.06
					c-4.65-1.42-9-3.75-12.93-6.9c-4.05-3.24-7.41-7.46-10.02-12.56c-2.69-5.21-4.04-11.51-4.04-18.68c0-7.18,1.36-13.46,4.04-18.67
					c2.61-5.05,5.96-9.25,9.98-12.49c3.95-3.2,8.31-5.54,12.97-6.97c4.44-1.37,8.71-2.06,12.68-2.06h75.07v35.91h-75.07
					c-2.05,0-2.57,0.57-2.77,0.79c-0.24,0.27-0.99,1.07-0.99,3.5c0,1.61,0.3,2.74,0.9,3.36c0.17,0.19,0.74,0.77,2.86,0.77h45.58
					c2.64,0.06,5.43,0.42,8.31,1.06c2.95,0.66,5.9,1.69,8.77,3.05c2.91,1.37,5.7,3.11,8.28,5.19c2.74,2.17,5.17,4.81,7.26,7.82
					c2.1,3.04,3.77,6.52,4.97,10.37C710.02,541.32,710.61,545.66,710.61,550.33z"/>
			</g>
		</g>
		<rect x="651.47" y="416.52" class="st0" width="57.47" height="41.23"/>
		<rect x="708.94" y="457.76" class="st0" width="39.19" height="57.47"/>
	</g>
	<g>
		<path class="st1" d="M275.37,663.6v-29.69h-10.59v-7.8h29.99v7.8h-10.6v29.69H275.37z"/>
		<path class="st1" d="M299.46,663.6v-37.48h8.8v13.84h13.24v-13.84h8.8v37.48h-8.8v-15.84h-13.24v15.84H299.46z"/>
		<path class="st1" d="M337.69,663.6v-37.48h25.49v7.55h-16.79v7.05h15.74v7.25h-15.74v8.1h16.79v7.55H337.69z"/>
		<path class="st1" d="M396.57,664.35c-3.63,0-6.76-0.79-9.4-2.37c-2.63-1.58-4.67-3.83-6.1-6.75c-1.43-2.92-2.15-6.37-2.15-10.37
			c0-4,0.71-7.45,2.12-10.37c1.42-2.92,3.43-5.16,6.05-6.75c2.62-1.58,5.69-2.37,9.22-2.37c3.17,0,5.92,0.6,8.27,1.8
			c2.35,1.2,4.19,2.87,5.52,5c1.33,2.13,2.03,4.58,2.1,7.35h-8.8c-0.27-1.87-1.01-3.4-2.22-4.6c-1.22-1.2-2.81-1.8-4.77-1.8
			c-2.63,0-4.71,1.07-6.22,3.2c-1.52,2.13-2.27,5-2.27,8.6c0,3.53,0.76,6.38,2.27,8.55c1.52,2.17,3.67,3.25,6.47,3.25
			c1.6,0,2.89-0.33,3.87-1c0.98-0.67,1.72-1.54,2.22-2.62c0.5-1.08,0.82-2.24,0.95-3.47h8.75c-0.13,3.1-0.87,5.75-2.22,7.95
			c-1.35,2.2-3.18,3.88-5.5,5.05C402.42,663.76,399.7,664.35,396.57,664.35z"/>
		<path class="st1" d="M434.75,664.35c-3.6,0-6.72-0.79-9.37-2.37c-2.65-1.58-4.7-3.82-6.15-6.72c-1.45-2.9-2.17-6.35-2.17-10.34
			c0-4,0.72-7.46,2.17-10.4c1.45-2.93,3.5-5.19,6.15-6.77c2.65-1.58,5.77-2.37,9.37-2.37c3.63,0,6.76,0.79,9.4,2.37
			c2.63,1.58,4.67,3.84,6.12,6.77c1.45,2.93,2.17,6.4,2.17,10.4c0,4-0.72,7.45-2.17,10.34c-1.45,2.9-3.49,5.14-6.12,6.72
			C441.51,663.56,438.38,664.35,434.75,664.35z M434.75,656.6c2.67,0,4.78-1.05,6.35-3.15c1.57-2.1,2.35-4.95,2.35-8.55
			c0-3.63-0.78-6.5-2.35-8.62c-1.57-2.12-3.68-3.17-6.35-3.17c-2.67,0-4.78,1.06-6.35,3.17c-1.57,2.12-2.35,4.99-2.35,8.62
			c0,3.6,0.78,6.45,2.35,8.55S432.08,656.6,434.75,656.6z"/>
		<path class="st1" d="M458.44,663.6v-37.48h15.04c3.56,0,6.64,0.76,9.22,2.27c2.58,1.52,4.58,3.67,6,6.45
			c1.42,2.78,2.12,6.11,2.12,9.97c0,3.83-0.71,7.16-2.12,9.97c-1.42,2.82-3.42,4.99-6,6.52c-2.58,1.53-5.66,2.3-9.22,2.3H458.44z
			 M467.14,656.4h6.35c2.6,0,4.64-1.01,6.12-3.02c1.48-2.02,2.22-4.87,2.22-8.57c0-3.67-0.74-6.5-2.22-8.5c-1.48-2-3.52-3-6.12-3
			h-6.35V656.4z"/>
		<path class="st1" d="M496.77,663.6v-37.48h25.49v7.55h-16.79v7.05h15.74v7.25h-15.74v8.1h16.79v7.55H496.77z"/>
		<path class="st1" d="M553.35,664.35c-2.93,0-5.59-0.5-7.97-1.5c-2.38-1-4.28-2.46-5.7-4.37c-1.42-1.92-2.12-4.27-2.12-7.07h8.9
			c0.17,1.87,0.87,3.25,2.1,4.15c1.23,0.9,2.76,1.35,4.6,1.35c1.8,0,3.28-0.32,4.45-0.95c1.17-0.63,1.75-1.52,1.75-2.65
			c0-0.97-0.35-1.68-1.05-2.15c-0.7-0.47-1.77-0.92-3.2-1.35l-8-2.35c-1.57-0.47-3.05-1.06-4.45-1.77c-1.4-0.72-2.52-1.71-3.37-2.97
			c-0.85-1.27-1.27-2.98-1.27-5.15c0-2.5,0.6-4.66,1.8-6.47c1.2-1.82,2.9-3.22,5.1-4.22c2.2-1,4.78-1.5,7.75-1.5
			c4.3,0,7.79,1.05,10.47,3.15c2.68,2.1,4.22,5.08,4.62,8.95h-9c-0.7-3.17-2.85-4.75-6.45-4.75c-1.73,0-3.06,0.33-3.97,1
			c-0.92,0.67-1.37,1.57-1.37,2.7c0,0.83,0.28,1.53,0.85,2.1c0.57,0.57,1.47,1.03,2.7,1.4l8.35,2.5c3.2,0.93,5.53,2.22,7,3.85
			c1.47,1.63,2.2,3.77,2.2,6.4c0,2.33-0.61,4.37-1.82,6.12c-1.22,1.75-2.92,3.12-5.12,4.1S556.31,664.35,553.35,664.35z"/>
		<path class="st1" d="M590.33,664.35c-3.6,0-6.72-0.79-9.37-2.37c-2.65-1.58-4.7-3.82-6.15-6.72c-1.45-2.9-2.17-6.35-2.17-10.34
			c0-4,0.72-7.46,2.17-10.4c1.45-2.93,3.5-5.19,6.15-6.77c2.65-1.58,5.77-2.37,9.37-2.37c3.63,0,6.76,0.79,9.4,2.37
			c2.63,1.58,4.67,3.84,6.12,6.77c1.45,2.93,2.17,6.4,2.17,10.4c0,4-0.72,7.45-2.17,10.34c-1.45,2.9-3.49,5.14-6.12,6.72
			C597.09,663.56,593.96,664.35,590.33,664.35z M590.33,656.6c2.67,0,4.78-1.05,6.35-3.15c1.57-2.1,2.35-4.95,2.35-8.55
			c0-3.63-0.78-6.5-2.35-8.62c-1.57-2.12-3.68-3.17-6.35-3.17c-2.67,0-4.78,1.06-6.35,3.17c-1.57,2.12-2.35,4.99-2.35,8.62
			c0,3.6,0.78,6.45,2.35,8.55S587.66,656.6,590.33,656.6z"/>
		<path class="st1" d="M614.02,663.6v-37.48h14.89c4.66,0,8.25,0.94,10.75,2.82c2.5,1.88,3.75,4.57,3.75,8.07
			c0,2.07-0.55,3.87-1.65,5.4s-2.67,2.72-4.7,3.55c2.3,0.73,3.85,1.82,4.65,3.27c0.8,1.45,1.2,3.29,1.2,5.52v8.85h-8.6v-7.95
			c0-3.83-1.8-5.75-5.4-5.75h-6.2v13.69H614.02z M622.72,642.56h6.2c1.77,0,3.12-0.41,4.07-1.22c0.95-0.82,1.42-1.97,1.42-3.47
			c0-1.37-0.48-2.42-1.42-3.17c-0.95-0.75-2.31-1.12-4.07-1.12h-6.2V642.56z"/>
		<path class="st1" d="M665.65,664.35c-3.63,0-6.76-0.79-9.4-2.37c-2.63-1.58-4.67-3.83-6.1-6.75c-1.43-2.92-2.15-6.37-2.15-10.37
			c0-4,0.71-7.45,2.12-10.37c1.42-2.92,3.43-5.16,6.05-6.75c2.62-1.58,5.69-2.37,9.22-2.37c3.17,0,5.92,0.6,8.27,1.8
			c2.35,1.2,4.19,2.87,5.52,5c1.33,2.13,2.03,4.58,2.1,7.35h-8.8c-0.27-1.87-1.01-3.4-2.22-4.6c-1.22-1.2-2.81-1.8-4.77-1.8
			c-2.63,0-4.71,1.07-6.22,3.2c-1.52,2.13-2.27,5-2.27,8.6c0,3.53,0.76,6.38,2.27,8.55c1.52,2.17,3.67,3.25,6.47,3.25
			c1.6,0,2.89-0.33,3.87-1c0.98-0.67,1.72-1.54,2.22-2.62c0.5-1.08,0.82-2.24,0.95-3.47h8.75c-0.13,3.1-0.87,5.75-2.22,7.95
			c-1.35,2.2-3.18,3.88-5.5,5.05C671.5,663.76,668.78,664.35,665.65,664.35z"/>
		<path class="st1" d="M687.34,663.6v-37.48h25.49v7.55h-16.79v7.05h15.74v7.25h-15.74v8.1h16.79v7.55H687.34z"/>
		<path class="st1" d="M718.97,663.6v-37.48h14.89c4.66,0,8.25,0.94,10.75,2.82c2.5,1.88,3.75,4.57,3.75,8.07
			c0,2.07-0.55,3.87-1.65,5.4s-2.67,2.72-4.7,3.55c2.3,0.73,3.85,1.82,4.65,3.27c0.8,1.45,1.2,3.29,1.2,5.52v8.85h-8.6v-7.95
			c0-3.83-1.8-5.75-5.4-5.75h-6.2v13.69H718.97z M727.67,642.56h6.2c1.77,0,3.12-0.41,4.07-1.22c0.95-0.82,1.42-1.97,1.42-3.47
			c0-1.37-0.48-2.42-1.42-3.17c-0.95-0.75-2.31-1.12-4.07-1.12h-6.2V642.56z"/>
		<path class="st1" d="M754.46,663.6v-37.48h25.49v7.55h-16.79v7.05h15.74v7.25h-15.74v8.1h16.79v7.55H754.46z"/>
		<path class="st1" d="M786.09,663.6v-37.48h14.89c4.66,0,8.25,0.94,10.75,2.82c2.5,1.88,3.75,4.57,3.75,8.07
			c0,2.07-0.55,3.87-1.65,5.4s-2.67,2.72-4.7,3.55c2.3,0.73,3.85,1.82,4.65,3.27c0.8,1.45,1.2,3.29,1.2,5.52v8.85h-8.6v-7.95
			c0-3.83-1.8-5.75-5.4-5.75h-6.2v13.69H786.09z M794.79,642.56h6.2c1.77,0,3.12-0.41,4.07-1.22c0.95-0.82,1.42-1.97,1.42-3.47
			c0-1.37-0.48-2.42-1.42-3.17c-0.95-0.75-2.31-1.12-4.07-1.12h-6.2V642.56z"/>
	</g>
</g>
</svg>
